<?xml version="1.0" encoding="UTF-8"?>
<!DOCTYPE svg PUBLIC "-//W3C//DTD SVG 1.1//EN" "http://www.w3.org/Graphics/SVG/1.1/DTD/svg11.dtd">
<svg xmlns="http://www.w3.org/2000/svg" version="1.1" width="600px" height="600px" style="shape-rendering:geometricPrecision; text-rendering:geometricPrecision; image-rendering:optimizeQuality; fill-rule:evenodd; clip-rule:evenodd" xmlns:xlink="http://www.w3.org/1999/xlink">
<g><path style="opacity:0.996" fill="#ffffff" d="M 352.5,140.5 C 352.167,140.5 351.833,140.5 351.5,140.5C 351.467,137.164 352.134,133.997 353.5,131C 351.599,128.03 350.099,124.864 349,121.5C 348.089,118.424 346.256,116.091 343.5,114.5C 341.35,116.149 339.35,117.982 337.5,120C 336.517,120.591 335.85,120.257 335.5,119C 329.878,95.942 320.878,74.442 308.5,54.5C 305.329,51.6647 302.496,51.9981 300,55.5C 297.572,61.6409 295.072,67.6409 292.5,73.5C 291.903,73.2648 291.57,72.7648 291.5,72C 294.059,65.4992 296.725,58.9992 299.5,52.5C 303.036,49.887 306.536,49.887 310,52.5C 316.826,64.1477 323.159,76.1477 329,88.5C 331.046,98.0191 333.713,107.352 337,116.5C 340.869,111.836 344.702,111.669 348.5,116C 351.257,121.657 353.257,127.491 354.5,133.5C 354.471,136.269 353.805,138.603 352.5,140.5 Z"/></g>
<g><path style="opacity:1" fill="#ffffff" d="M 227.5,116.5 C 227.842,115.662 228.508,115.328 229.5,115.5C 229.735,116.097 230.235,116.43 231,116.5C 241.218,113.979 251.551,112.312 262,111.5C 265.833,111.667 269.667,111.833 273.5,112C 274.509,114.172 276.176,115.338 278.5,115.5C 283.581,118.203 288.914,120.703 294.5,123C 297.207,125.343 299.874,127.677 302.5,130C 303.833,130.667 305.167,130.667 306.5,130C 307.617,126.927 307.784,123.76 307,120.5C 303.535,112.097 302.868,103.43 305,94.5C 306,92.8333 307,91.1667 308,89.5C 310.205,98.3995 311.872,107.399 313,116.5C 313.565,123.933 316.899,129.599 323,133.5C 326.712,135.519 330.546,137.352 334.5,139C 337.636,140.041 340.136,139.207 342,136.5C 342.458,139.096 341.625,141.263 339.5,143C 331.331,145.626 322.998,147.459 314.5,148.5C 315.316,152.147 316.816,155.48 319,158.5C 320.32,158.799 321.82,158.966 323.5,159C 323.957,159.414 324.291,159.914 324.5,160.5C 323.271,161.281 321.938,161.781 320.5,162C 320.833,162.333 321.167,162.667 321.5,163C 324.293,161.918 327.293,161.585 330.5,162C 328.619,163.102 326.952,164.435 325.5,166C 326.119,168.532 327.119,170.865 328.5,173C 326.339,175.477 325.505,178.311 326,181.5C 338.861,190.345 351.194,200.012 363,210.5C 363.483,211.448 363.649,212.448 363.5,213.5C 365.39,213.297 366.89,213.963 368,215.5C 375.713,223.151 378.879,232.484 377.5,243.5C 377.167,247.167 376.833,250.833 376.5,254.5C 375.692,254.192 375.025,253.692 374.5,253C 369.921,252.994 365.754,252.827 362,252.5C 354.903,257.785 351.736,256.118 352.5,247.5C 354.814,246.821 355.147,245.488 353.5,243.5C 354.325,242.614 355.325,242.281 356.5,242.5C 358.394,243.048 360.06,244.048 361.5,245.5C 362.086,245.291 362.586,244.957 363,244.5C 364.52,240.625 364.854,236.625 364,232.5C 360.678,228.51 357.345,224.51 354,220.5C 352.274,221.576 350.441,221.743 348.5,221C 346.283,219.725 343.949,218.725 341.5,218C 340.228,216.693 339.228,215.193 338.5,213.5C 337.393,214.022 336.226,214.355 335,214.5C 320.117,210.727 305.284,207.227 290.5,204C 286,198.167 281.5,192.333 277,186.5C 276.517,185.552 276.351,184.552 276.5,183.5C 272.369,181.394 268.036,179.561 263.5,178C 257.461,177.663 251.461,176.997 245.5,176C 243.368,172.236 241.368,168.403 239.5,164.5C 238.5,164 237.5,163.5 236.5,163C 230.833,162.333 225.167,162.333 219.5,163C 218.088,164.791 216.255,165.958 214,166.5C 209.593,173.639 204.927,180.639 200,187.5C 199.73,191.373 199.23,195.206 198.5,199C 198.57,199.765 198.903,200.265 199.5,200.5C 199.737,201.791 199.404,202.791 198.5,203.5C 198.607,201.621 198.107,201.288 197,202.5C 196.792,198.082 196.126,193.749 195,189.5C 194.536,190.094 194.369,190.761 194.5,191.5C 193.566,190.432 193.232,189.099 193.5,187.5C 194.147,186.726 194.48,185.726 194.5,184.5C 194.203,172.683 188.87,169.683 178.5,175.5C 176.035,182.397 173.868,189.397 172,196.5C 171.146,200.625 171.48,204.625 173,208.5C 173.49,207.207 173.657,205.873 173.5,204.5C 174.451,205.919 174.784,207.585 174.5,209.5C 173.761,209.369 173.094,209.536 172.5,210C 174.141,213.935 173.475,217.435 170.5,220.5C 169.686,218.234 169.186,215.9 169,213.5C 168.819,216.695 168.319,219.695 167.5,222.5C 167.5,219.167 167.5,215.833 167.5,212.5C 168.461,210.735 168.795,208.735 168.5,206.5C 168.266,202.231 167.099,198.231 165,194.5C 164.601,194.728 164.435,195.062 164.5,195.5C 163.662,195.158 163.328,194.492 163.5,193.5C 164.043,193.44 164.376,193.107 164.5,192.5C 160.945,187.135 158.112,181.468 156,175.5C 155.282,176.451 154.449,176.617 153.5,176C 152.696,174.229 151.529,172.729 150,171.5C 147.543,160.215 145.21,148.882 143,137.5C 140.564,122.685 141.231,108.018 145,93.5C 147.759,83.7213 151.926,82.7213 157.5,90.5C 156.132,91.5937 154.965,91.2603 154,89.5C 153.449,91.3533 154.115,92.6867 156,93.5C 157.049,92.4829 158.216,92.3162 159.5,93C 161.984,95.7441 164.984,97.7441 168.5,99C 183.293,103.099 196.959,109.432 209.5,118C 208.167,118.333 206.833,118.667 205.5,119C 207.899,119.711 210.232,119.544 212.5,118.5C 214.22,119.98 216.053,121.314 218,122.5C 221.671,120.153 224.838,118.153 227.5,116.5 Z M 184.5,115.5 C 185.568,116.434 186.901,116.768 188.5,116.5C 190.785,117.225 192.618,118.558 194,120.5C 195.755,124.295 196.255,128.128 195.5,132C 191.833,132.667 188.167,132.667 184.5,132C 182.789,129.411 180.955,126.911 179,124.5C 178.184,123.177 177.017,122.511 175.5,122.5C 173.965,121.212 172.299,121.212 170.5,122.5C 170.624,123.107 170.957,123.44 171.5,123.5C 174.852,131.41 177.519,139.577 179.5,148C 177.735,153.795 176.069,159.629 174.5,165.5C 173.596,166.209 173.263,167.209 173.5,168.5C 171.717,173.158 169.717,177.824 167.5,182.5C 166.893,182.376 166.56,182.043 166.5,181.5C 166.795,179.265 166.461,177.265 165.5,175.5C 165.795,173.265 165.461,171.265 164.5,169.5C 164.725,164.752 164.225,160.085 163,155.5C 158.167,143 153.333,130.5 148.5,118C 149.016,111.005 150.349,104.172 152.5,97.5C 157.279,100.776 161.612,104.609 165.5,109C 171.618,111.873 177.952,114.039 184.5,115.5 Z"/></g>
<g><path style="opacity:0.996" fill="#ffffff" d="M 412.5,379.5 C 411.262,379.19 411.262,378.69 412.5,378C 417.636,376.031 421.302,372.531 423.5,367.5C 424.325,366.614 425.325,366.281 426.5,366.5C 428.429,363.549 430.429,360.549 432.5,357.5C 438.38,350.409 444.714,343.742 451.5,337.5C 452.959,335.417 454.292,333.25 455.5,331C 455.167,330.667 454.833,330.333 454.5,330C 457.275,328.351 460.275,327.184 463.5,326.5C 465.697,326.848 467.53,327.848 469,329.5C 470.536,335.749 470.87,342.083 470,348.5C 454.202,365.634 438.369,382.801 422.5,400C 427.573,402.242 432.906,402.909 438.5,402C 447.235,392.639 456.235,383.306 465.5,374C 464.483,372.951 464.316,371.784 465,370.5C 466.68,371.603 468.18,371.27 469.5,369.5C 468.371,367.471 468.871,367.137 471,368.5C 473.526,365.833 475.359,362.833 476.5,359.5C 479.809,359.692 482.309,358.359 484,355.5C 484.483,354.552 484.649,353.552 484.5,352.5C 485.5,352.5 486.5,352.5 487.5,352.5C 487.325,349.671 488.658,348.004 491.5,347.5C 492.986,345.698 493.986,343.698 494.5,341.5C 497.985,341.857 500.318,340.357 501.5,337C 501.265,336.127 500.931,335.293 500.5,334.5C 496.738,334.481 493.072,334.148 489.5,333.5C 486.203,331.867 484.536,329.2 484.5,325.5C 484.666,321.154 484.499,316.821 484,312.5C 470.401,302.902 458.401,291.569 448,278.5C 445.747,271.842 442.747,265.508 439,259.5C 436.274,251.871 433.774,244.204 431.5,236.5C 430.833,237.5 430.167,238.5 429.5,239.5C 429.167,239 428.833,238.5 428.5,238C 429.167,236.667 429.833,235.333 430.5,234C 428.616,229.632 427.116,225.132 426,220.5C 423.095,216.12 420.762,211.453 419,206.5C 412.147,193.448 404.814,180.781 397,168.5C 392.99,163.659 388.823,158.992 384.5,154.5C 383.675,153.614 382.675,153.281 381.5,153.5C 377.813,145.987 373.646,138.654 369,131.5C 365.21,130.71 363.21,128.376 363,124.5C 361.736,122.393 359.903,121.393 357.5,121.5C 357.263,118.353 356.43,115.353 355,112.5C 346.187,96.0352 338.02,79.7019 330.5,63.5C 323.384,54.2112 316.051,45.0446 308.5,36C 305.261,36.4456 302.261,37.779 299.5,40C 291.788,47.2595 287.121,56.0928 285.5,66.5C 285.833,67.1667 286.167,67.8333 286.5,68.5C 285.052,70.6667 283.885,73 283,75.5C 281.592,84.1295 279.758,92.6295 277.5,101C 278.385,105.626 280.552,106.459 284,103.5C 285.379,93.5244 287.713,83.8578 291,74.5C 291.464,75.0944 291.631,75.7611 291.5,76.5C 289.618,87.6957 286.951,98.6957 283.5,109.5C 280.567,108.07 278.067,106.07 276,103.5C 278.661,88.1727 281.661,72.8394 285,57.5C 288.716,49.9112 293.549,43.0778 299.5,37C 302.343,35.4832 305.177,33.9832 308,32.5C 315.971,41.4818 323.638,50.8152 331,60.5C 340.331,80.1177 349.998,99.4511 360,118.5C 367.8,126.102 374.133,134.769 379,144.5C 388.481,155.469 397.481,166.802 406,178.5C 413.318,192.469 420.652,206.469 428,220.5C 434.576,241.898 442.909,262.564 453,282.5C 463.72,293.056 474.886,303.056 486.5,312.5C 487.619,317.395 487.286,322.228 485.5,327C 489.256,332.855 494.256,334.022 500.5,330.5C 503.804,331.287 505.304,333.287 505,336.5C 483.277,359.225 461.11,381.725 438.5,404C 432.407,404.624 426.407,404.124 420.5,402.5C 420.608,400.217 421.441,398.217 423,396.5C 437.634,380.198 452.634,364.198 468,348.5C 468.768,342.627 468.601,336.794 467.5,331C 466.038,328.799 464.038,328.133 461.5,329C 447.204,345.632 432.537,361.965 417.5,378C 415.975,379.009 414.308,379.509 412.5,379.5 Z"/></g>
<g><path style="opacity:0.655" fill="#ffffff" d="M 227.5,116.5 C 224.838,118.153 221.671,120.153 218,122.5C 216.053,121.314 214.22,119.98 212.5,118.5C 210.232,119.544 207.899,119.711 205.5,119C 206.833,118.667 208.167,118.333 209.5,118C 196.959,109.432 183.293,103.099 168.5,99C 164.984,97.7441 161.984,95.7441 159.5,93C 158.216,92.3162 157.049,92.4829 156,93.5C 154.115,92.6867 153.449,91.3533 154,89.5C 154.965,91.2603 156.132,91.5937 157.5,90.5C 151.926,82.7213 147.759,83.7213 145,93.5C 141.231,108.018 140.564,122.685 143,137.5C 145.21,148.882 147.543,160.215 150,171.5C 151.529,172.729 152.696,174.229 153.5,176C 154.449,176.617 155.282,176.451 156,175.5C 158.112,181.468 160.945,187.135 164.5,192.5C 164.376,193.107 164.043,193.44 163.5,193.5C 158.585,186.069 153.419,178.736 148,171.5C 144.517,155.936 141.684,140.27 139.5,124.5C 140.833,119.833 140.833,115.167 139.5,110.5C 140.366,103.702 141.866,97.0354 144,90.5C 145.618,86.9257 147.951,83.9257 151,81.5C 155.844,86.6775 161.011,91.5108 166.5,96C 175.103,99.2008 183.769,102.201 192.5,105C 200.682,110.594 209.349,115.427 218.5,119.5C 221.234,117.629 224.234,116.629 227.5,116.5 Z"/></g>
<g><path style="opacity:0.945" fill="#ffffff" d="M 271.5,109.5 C 266.833,110.833 262.167,110.833 257.5,109.5C 262.167,108.167 266.833,108.167 271.5,109.5 Z"/></g>
<g><path style="opacity:0.996" fill="#ffffff" d="M 257.5,109.5 C 262.167,110.833 266.833,110.833 271.5,109.5C 274.803,110.151 277.47,111.818 279.5,114.5C 278.833,114.5 278.5,114.833 278.5,115.5C 276.176,115.338 274.509,114.172 273.5,112C 269.667,111.833 265.833,111.667 262,111.5C 251.551,112.312 241.218,113.979 231,116.5C 230.235,116.43 229.735,116.097 229.5,115.5C 238.422,112.114 247.756,110.114 257.5,109.5 Z"/></g>
<g><path style="opacity:0.945" fill="#ffffff" d="M 139.5,110.5 C 140.833,115.167 140.833,119.833 139.5,124.5C 138.222,119.865 138.222,115.198 139.5,110.5 Z"/></g>
<g><path style="opacity:0.216" fill="#ffffff" d="M 175.5,122.5 C 173.901,122.232 172.568,122.566 171.5,123.5C 170.957,123.44 170.624,123.107 170.5,122.5C 172.299,121.212 173.965,121.212 175.5,122.5 Z"/></g>
<g><path style="opacity:0.655" fill="#ffffff" d="M 184.5,115.5 C 177.952,114.039 171.618,111.873 165.5,109C 161.612,104.609 157.279,100.776 152.5,97.5C 150.349,104.172 149.016,111.005 148.5,118C 153.333,130.5 158.167,143 163,155.5C 164.225,160.085 164.725,164.752 164.5,169.5C 164.649,170.552 164.483,171.552 164,172.5C 163.433,169.832 162.933,167.166 162.5,164.5C 161.334,153.843 157.667,144.176 151.5,135.5C 151.833,134.833 152.167,134.167 152.5,133.5C 149.787,129.196 147.953,124.529 147,119.5C 147.021,111.708 148.021,104.042 150,96.5C 150.667,95.8333 151.333,95.1667 152,94.5C 157.815,99.3113 163.648,104.145 169.5,109C 175.545,110.683 181.545,112.683 187.5,115C 186.552,115.483 185.552,115.649 184.5,115.5 Z"/></g>
<g><path style="opacity:0.655" fill="#ffffff" d="M 188.5,116.5 C 189.251,115.427 190.251,115.26 191.5,116C 197.385,119.98 199.551,125.48 198,132.5C 195.753,133.98 193.253,134.647 190.5,134.5C 187.159,134.164 183.825,133.831 180.5,133.5C 180.152,129.806 178.485,126.806 175.5,124.5C 175.167,125 174.833,125.5 174.5,126C 175.34,129.263 176.84,132.097 179,134.5C 179.5,139.5 180,144.5 180.5,149.5C 179.299,155.624 177.466,161.624 175,167.5C 174.536,166.906 174.369,166.239 174.5,165.5C 176.069,159.629 177.735,153.795 179.5,148C 177.519,139.577 174.852,131.41 171.5,123.5C 172.568,122.566 173.901,122.232 175.5,122.5C 177.017,122.511 178.184,123.177 179,124.5C 180.955,126.911 182.789,129.411 184.5,132C 188.167,132.667 191.833,132.667 195.5,132C 196.255,128.128 195.755,124.295 194,120.5C 192.618,118.558 190.785,117.225 188.5,116.5 Z"/></g>
<g><path style="opacity:1" fill="#ffffff" d="M 162.5,164.5 C 162.933,167.166 163.433,169.832 164,172.5C 164.483,171.552 164.649,170.552 164.5,169.5C 165.461,171.265 165.795,173.265 165.5,175.5C 165.558,179.701 164.558,180.201 162.5,177C 162.543,173.107 162.543,168.94 162.5,164.5 Z"/></g>
<g><path style="opacity:0.996" fill="#ffffff" d="M 173.5,168.5 C 174.043,168.56 174.376,168.893 174.5,169.5C 172.714,174.85 170.714,180.184 168.5,185.5C 167.675,186.386 166.675,186.719 165.5,186.5C 165.216,184.585 165.549,182.919 166.5,181.5C 166.56,182.043 166.893,182.376 167.5,182.5C 169.717,177.824 171.717,173.158 173.5,168.5 Z"/></g>
<g><path style="opacity:1" fill="#ffffff" d="M 484.5,325.5 C 482.3,331.159 483.966,333.826 489.5,333.5C 493.072,334.148 496.738,334.481 500.5,334.5C 500.931,335.293 501.265,336.127 501.5,337C 500.318,340.357 497.985,341.857 494.5,341.5C 493.986,343.698 492.986,345.698 491.5,347.5C 488.658,348.004 487.325,349.671 487.5,352.5C 486.5,352.5 485.5,352.5 484.5,352.5C 484.649,353.552 484.483,354.552 484,355.5C 482.309,358.359 479.809,359.692 476.5,359.5C 475.359,362.833 473.526,365.833 471,368.5C 468.871,367.137 468.371,367.471 469.5,369.5C 468.18,371.27 466.68,371.603 465,370.5C 464.316,371.784 464.483,372.951 465.5,374C 456.235,383.306 447.235,392.639 438.5,402C 432.906,402.909 427.573,402.242 422.5,400C 438.369,382.801 454.202,365.634 470,348.5C 470.87,342.083 470.536,335.749 469,329.5C 467.53,327.848 465.697,326.848 463.5,326.5C 460.275,327.184 457.275,328.351 454.5,330C 454.833,330.333 455.167,330.667 455.5,331C 454.292,333.25 452.959,335.417 451.5,337.5C 444.714,343.742 438.38,350.409 432.5,357.5C 430.429,360.549 428.429,363.549 426.5,366.5C 425.325,366.281 424.325,366.614 423.5,367.5C 421.302,372.531 417.636,376.031 412.5,378C 411.262,378.69 411.262,379.19 412.5,379.5C 412.158,380.338 411.492,380.672 410.5,380.5C 410.265,379.903 409.765,379.57 409,379.5C 405.984,380.289 403.151,381.122 400.5,382C 401.371,378.229 403.704,376.229 407.5,376C 406.446,374.612 406.28,373.112 407,371.5C 420.552,352.756 433.886,333.756 447,314.5C 448.294,309.087 446.461,305.42 441.5,303.5C 431.723,304.522 422.056,306.189 412.5,308.5C 406.102,309.695 400.102,312.028 394.5,315.5C 393.914,315.291 393.414,314.957 393,314.5C 388.272,316.555 383.772,319.055 379.5,322C 370.627,332.275 362.127,342.775 354,353.5C 353.667,352.833 353.333,352.167 353,351.5C 352.316,352.784 352.483,353.951 353.5,355C 352.437,356.188 351.103,356.688 349.5,356.5C 349.657,357.873 349.49,359.207 349,360.5C 342.301,368.505 336.967,377.839 333,388.5C 328.377,406.111 325.21,423.778 323.5,441.5C 318.85,448.145 313.85,454.478 308.5,460.5C 307.271,461.281 305.938,461.781 304.5,462C 304.273,463.135 303.94,464.302 303.5,465.5C 302.914,465.291 302.414,464.957 302,464.5C 302.61,473.337 301.11,481.837 297.5,490C 298.022,490.561 298.355,491.228 298.5,492C 297.77,495.794 297.27,499.627 297,503.5C 296.667,503.167 296.333,502.833 296,502.5C 295.667,505.5 295.333,508.5 295,511.5C 294.722,510.584 294.222,509.918 293.5,509.5C 293.666,505.154 293.499,500.821 293,496.5C 291.623,492.706 290.457,488.872 289.5,485C 289.603,483.439 289.937,481.939 290.5,480.5C 289.431,480.64 288.264,480.64 287,480.5C 286.142,476.398 284.975,472.398 283.5,468.5C 285.02,465.697 284.353,463.53 281.5,462C 281.833,461.667 282.167,461.333 282.5,461C 281.71,452.714 280.71,444.547 279.5,436.5C 280.581,433.668 280.415,431.002 279,428.5C 274.975,426.334 270.808,424.334 266.5,422.5C 273.763,416.747 280.93,410.747 288,404.5C 289.25,401.923 289.584,399.257 289,396.5C 287.874,395.056 286.374,394.39 284.5,394.5C 280.015,397.288 275.181,399.622 270,401.5C 268.989,400.944 268.156,400.278 267.5,399.5C 267.232,397.901 267.566,396.568 268.5,395.5C 268.351,396.552 268.517,397.552 269,398.5C 270.361,393.722 272.028,389.056 274,384.5C 281.375,373.016 288.375,361.35 295,349.5C 296.079,347.606 297.413,347.273 299,348.5C 299.311,347.258 298.811,346.258 297.5,345.5C 302.226,339.705 306.226,333.371 309.5,326.5C 324.593,313.228 339.427,299.895 354,286.5C 353.519,281.038 352.186,275.705 350,270.5C 349.536,271.094 349.369,271.761 349.5,272.5C 348.549,271.081 348.216,269.415 348.5,267.5C 350.167,267.5 351.833,267.5 353.5,267.5C 352.391,268.29 351.058,268.79 349.5,269C 362.212,267.994 374.879,266.327 387.5,264C 389.552,261.226 389.886,258.393 388.5,255.5C 388.263,254.209 388.596,253.209 389.5,252.5C 389.721,255.097 390.221,255.097 391,252.5C 391.499,247.845 391.666,243.179 391.5,238.5C 391.339,233.597 390.506,228.93 389,224.5C 390.507,223.465 392.007,223.632 393.5,225C 396.753,227.874 400.253,230.374 404,232.5C 408.568,229.902 409.568,226.235 407,221.5C 395.31,208.144 382.977,195.478 370,183.5C 369.517,182.552 369.351,181.552 369.5,180.5C 371.911,180.137 373.411,181.137 374,183.5C 376.562,183.262 378.896,184.262 381,186.5C 381.29,188.044 381.956,189.377 383,190.5C 383.333,190.167 383.667,189.833 384,189.5C 385.571,191.923 387.737,193.256 390.5,193.5C 390.33,194.822 390.663,195.989 391.5,197C 395.597,199.098 399.431,201.598 403,204.5C 404.365,203.407 404.699,202.074 404,200.5C 398.916,188.651 392.583,177.651 385,167.5C 381.257,164.978 378.757,161.645 377.5,157.5C 371.778,157.881 368.111,160.881 366.5,166.5C 363.804,167.851 361.47,169.684 359.5,172C 358.5,172.667 357.5,172.667 356.5,172C 359.776,164.78 362.776,157.447 365.5,150C 364.782,148.013 363.782,146.179 362.5,144.5C 361.15,145.95 359.484,146.617 357.5,146.5C 356.337,153.815 353.17,160.148 348,165.5C 346.523,164.556 345.523,163.223 345,161.5C 344.086,162.654 343.253,162.487 342.5,161C 345.943,160.596 347.276,158.929 346.5,156C 350.316,151.536 352.316,146.369 352.5,140.5C 353.805,138.603 354.471,136.269 354.5,133.5C 353.257,127.491 351.257,121.657 348.5,116C 344.702,111.669 340.869,111.836 337,116.5C 333.713,107.352 331.046,98.0191 329,88.5C 323.159,76.1477 316.826,64.1477 310,52.5C 306.536,49.887 303.036,49.887 299.5,52.5C 296.725,58.9992 294.059,65.4992 291.5,72C 291.57,72.7648 291.903,73.2648 292.5,73.5C 292.737,74.791 292.404,75.791 291.5,76.5C 291.631,75.7611 291.464,75.0944 291,74.5C 287.713,83.8578 285.379,93.5244 284,103.5C 280.552,106.459 278.385,105.626 277.5,101C 279.758,92.6295 281.592,84.1295 283,75.5C 283.885,73 285.052,70.6667 286.5,68.5C 286.167,67.8333 285.833,67.1667 285.5,66.5C 287.121,56.0928 291.788,47.2595 299.5,40C 302.261,37.779 305.261,36.4456 308.5,36C 316.051,45.0446 323.384,54.2112 330.5,63.5C 338.02,79.7019 346.187,96.0352 355,112.5C 356.43,115.353 357.263,118.353 357.5,121.5C 359.903,121.393 361.736,122.393 363,124.5C 363.21,128.376 365.21,130.71 369,131.5C 373.646,138.654 377.813,145.987 381.5,153.5C 382.675,153.281 383.675,153.614 384.5,154.5C 388.823,158.992 392.99,163.659 397,168.5C 404.814,180.781 412.147,193.448 419,206.5C 420.762,211.453 423.095,216.12 426,220.5C 427.116,225.132 428.616,229.632 430.5,234C 429.833,235.333 429.167,236.667 428.5,238C 428.833,238.5 429.167,239 429.5,239.5C 430.167,238.5 430.833,237.5 431.5,236.5C 433.774,244.204 436.274,251.871 439,259.5C 442.747,265.508 445.747,271.842 448,278.5C 458.401,291.569 470.401,302.902 484,312.5C 484.499,316.821 484.666,321.154 484.5,325.5 Z"/></g>
<g><path style="opacity:0.475" fill="#ffffff" d="M 193.5,187.5 C 192.361,183.699 191.528,179.699 191,175.5C 188.123,174.17 185.289,174.336 182.5,176C 177.106,184.742 174.106,194.242 173.5,204.5C 173.657,205.873 173.49,207.207 173,208.5C 171.48,204.625 171.146,200.625 172,196.5C 173.868,189.397 176.035,182.397 178.5,175.5C 188.87,169.683 194.203,172.683 194.5,184.5C 194.48,185.726 194.147,186.726 193.5,187.5 Z"/></g>
<g><path style="opacity:0.996" fill="#ffffff" d="M 351.5,140.5 C 351.833,140.5 352.167,140.5 352.5,140.5C 352.316,146.369 350.316,151.536 346.5,156C 347.276,158.929 345.943,160.596 342.5,161C 343.253,162.487 344.086,162.654 345,161.5C 345.523,163.223 346.523,164.556 348,165.5C 353.17,160.148 356.337,153.815 357.5,146.5C 359.484,146.617 361.15,145.95 362.5,144.5C 363.782,146.179 364.782,148.013 365.5,150C 362.776,157.447 359.776,164.78 356.5,172C 357.5,172.667 358.5,172.667 359.5,172C 361.47,169.684 363.804,167.851 366.5,166.5C 368.111,160.881 371.778,157.881 377.5,157.5C 378.757,161.645 381.257,164.978 385,167.5C 392.583,177.651 398.916,188.651 404,200.5C 404.699,202.074 404.365,203.407 403,204.5C 399.431,201.598 395.597,199.098 391.5,197C 390.663,195.989 390.33,194.822 390.5,193.5C 387.737,193.256 385.571,191.923 384,189.5C 383.667,189.833 383.333,190.167 383,190.5C 381.956,189.377 381.29,188.044 381,186.5C 378.896,184.262 376.562,183.262 374,183.5C 373.411,181.137 371.911,180.137 369.5,180.5C 369.351,181.552 369.517,182.552 370,183.5C 382.977,195.478 395.31,208.144 407,221.5C 409.568,226.235 408.568,229.902 404,232.5C 400.253,230.374 396.753,227.874 393.5,225C 392.007,223.632 390.507,223.465 389,224.5C 390.506,228.93 391.339,233.597 391.5,238.5C 390.833,242.167 390.167,245.833 389.5,249.5C 390.875,238.186 388.875,227.52 383.5,217.5C 384.365,216.417 385.365,216.251 386.5,217C 392.048,221.883 397.881,226.383 404,230.5C 406.303,228.662 406.969,226.328 406,223.5C 393.73,209.228 380.73,195.561 367,182.5C 366.517,181.552 366.351,180.552 366.5,179.5C 368.936,179.683 371.103,179.016 373,177.5C 382.149,185.406 391.483,193.072 401,200.5C 394.816,185.173 385.816,171.507 374,159.5C 370.202,167.134 364.369,172.467 356.5,175.5C 355.167,175.5 354.5,174.833 354.5,173.5C 357.348,165.632 360.348,157.799 363.5,150C 363.37,148.941 362.87,148.108 362,147.5C 358.041,153.918 354.207,160.418 350.5,167C 345.838,166.191 341.171,165.024 336.5,163.5C 333.201,163.738 330.201,164.738 327.5,166.5C 329.041,168.204 330.375,170.037 331.5,172C 330.174,174.317 328.84,176.651 327.5,179C 336.621,187.389 346.287,195.055 356.5,202C 364.404,209.234 371.571,217.067 378,225.5C 380.883,235.682 381.05,245.849 378.5,256C 368.939,255.056 359.605,256.222 350.5,259.5C 349.751,253.808 350.084,248.141 351.5,242.5C 352.451,243.919 352.784,245.585 352.5,247.5C 351.736,256.118 354.903,257.785 362,252.5C 365.754,252.827 369.921,252.994 374.5,253C 375.025,253.692 375.692,254.192 376.5,254.5C 376.833,250.833 377.167,247.167 377.5,243.5C 378.879,232.484 375.713,223.151 368,215.5C 366.89,213.963 365.39,213.297 363.5,213.5C 363.649,212.448 363.483,211.448 363,210.5C 351.194,200.012 338.861,190.345 326,181.5C 325.505,178.311 326.339,175.477 328.5,173C 327.119,170.865 326.119,168.532 325.5,166C 326.952,164.435 328.619,163.102 330.5,162C 327.293,161.585 324.293,161.918 321.5,163C 321.167,162.667 320.833,162.333 320.5,162C 321.938,161.781 323.271,161.281 324.5,160.5C 324.291,159.914 323.957,159.414 323.5,159C 321.82,158.966 320.32,158.799 319,158.5C 316.816,155.48 315.316,152.147 314.5,148.5C 322.998,147.459 331.331,145.626 339.5,143C 341.625,141.263 342.458,139.096 342,136.5C 340.136,139.207 337.636,140.041 334.5,139C 330.546,137.352 326.712,135.519 323,133.5C 316.899,129.599 313.565,123.933 313,116.5C 311.872,107.399 310.205,98.3995 308,89.5C 307,91.1667 306,92.8333 305,94.5C 302.868,103.43 303.535,112.097 307,120.5C 307.784,123.76 307.617,126.927 306.5,130C 305.167,130.667 303.833,130.667 302.5,130C 299.874,127.677 297.207,125.343 294.5,123C 288.914,120.703 283.581,118.203 278.5,115.5C 278.5,114.833 278.833,114.5 279.5,114.5C 288.842,117.338 297.175,122.005 304.5,128.5C 304.833,127.667 305.167,126.833 305.5,126C 303.645,117.662 301.978,109.329 300.5,101C 302.409,95.0141 305.243,89.5141 309,84.5C 311.783,98.5247 314.783,112.525 318,126.5C 324.003,132.586 331.17,136.086 339.5,137C 341.279,134.107 343.612,132.94 346.5,133.5C 345.153,137.735 343.153,141.568 340.5,145C 332.62,147.369 324.62,149.202 316.5,150.5C 321.794,157.407 328.794,160.907 337.5,161C 345.514,156.464 350.181,149.631 351.5,140.5 Z"/></g>
<g><path style="opacity:0.475" fill="#ffffff" d="M 354.5,173.5 C 354.5,174.833 355.167,175.5 356.5,175.5C 355.828,176.267 354.995,176.934 354,177.5C 353.235,175.934 353.402,174.601 354.5,173.5 Z"/></g>
<g><path style="opacity:0.655" fill="#ffffff" d="M 356.5,242.5 C 355.432,241.566 354.099,241.232 352.5,241.5C 352.285,239.821 352.952,238.821 354.5,238.5C 356.754,239.415 358.754,240.748 360.5,242.5C 362.973,239.096 363.139,235.43 361,231.5C 351.768,223.743 341.268,218.243 329.5,215C 316.288,211.298 302.954,208.132 289.5,205.5C 284.046,198.757 278.713,191.924 273.5,185C 270.446,182.806 267.112,181.139 263.5,180C 257.485,179.465 251.485,178.799 245.5,178C 242.5,173.667 239.5,169.333 236.5,165C 230.245,163.873 224.245,164.54 218.5,167C 208.368,176.105 202.035,187.272 199.5,200.5C 198.903,200.265 198.57,199.765 198.5,199C 199.23,195.206 199.73,191.373 200,187.5C 204.927,180.639 209.593,173.639 214,166.5C 216.255,165.958 218.088,164.791 219.5,163C 225.167,162.333 230.833,162.333 236.5,163C 237.5,163.5 238.5,164 239.5,164.5C 241.368,168.403 243.368,172.236 245.5,176C 251.461,176.997 257.461,177.663 263.5,178C 268.036,179.561 272.369,181.394 276.5,183.5C 276.351,184.552 276.517,185.552 277,186.5C 281.5,192.333 286,198.167 290.5,204C 305.284,207.227 320.117,210.727 335,214.5C 336.226,214.355 337.393,214.022 338.5,213.5C 339.228,215.193 340.228,216.693 341.5,218C 343.949,218.725 346.283,219.725 348.5,221C 350.441,221.743 352.274,221.576 354,220.5C 357.345,224.51 360.678,228.51 364,232.5C 364.854,236.625 364.52,240.625 363,244.5C 362.586,244.957 362.086,245.291 361.5,245.5C 360.06,244.048 358.394,243.048 356.5,242.5 Z"/></g>
<g><path style="opacity:0.164" fill="#ffffff" d="M 194.5,195.5 C 194.881,199.119 195.881,202.452 197.5,205.5C 196.791,206.404 195.791,206.737 194.5,206.5C 194.5,202.833 194.5,199.167 194.5,195.5 Z"/></g>
<g><path style="opacity:0.82" fill="#ffffff" d="M 198.5,203.5 C 198.672,204.492 198.338,205.158 197.5,205.5C 195.881,202.452 194.881,199.119 194.5,195.5C 194.5,194.167 194.5,192.833 194.5,191.5C 194.369,190.761 194.536,190.094 195,189.5C 196.126,193.749 196.792,198.082 197,202.5C 198.107,201.288 198.607,201.621 198.5,203.5 Z"/></g>
<g><path style="opacity:1" fill="#ffffff" d="M 175.5,197.5 C 175.918,198.222 176.584,198.722 177.5,199C 176.833,199.333 176.167,199.667 175.5,200C 175.728,200.399 176.062,200.565 176.5,200.5C 175.528,201.751 174.861,201.418 174.5,199.5C 174.543,198.584 174.876,197.917 175.5,197.5 Z"/></g>
<g><path style="opacity:0.945" fill="#ffffff" d="M 175.5,197.5 C 178.187,197.336 180.854,197.503 183.5,198C 185.303,198.637 186.636,199.803 187.5,201.5C 186.833,201.833 186.167,202.167 185.5,202.5C 182.521,201.672 179.521,201.005 176.5,200.5C 176.062,200.565 175.728,200.399 175.5,200C 176.167,199.667 176.833,199.333 177.5,199C 176.584,198.722 175.918,198.222 175.5,197.5 Z"/></g>
<g><path style="opacity:1" fill="#ffffff" d="M 273.5,204.5 C 274.043,204.56 274.376,204.893 274.5,205.5C 272.5,205.833 270.5,206.167 268.5,206.5C 265.473,206.713 262.807,206.047 260.5,204.5C 261.239,204.631 261.906,204.464 262.5,204C 258.991,202.241 255.325,201.074 251.5,200.5C 251.351,199.448 251.517,198.448 252,197.5C 257.429,199.796 262.929,201.963 268.5,204C 266.833,204.333 265.167,204.667 263.5,205C 267.027,205.808 270.36,205.641 273.5,204.5 Z"/></g>
<g><path style="opacity:0.996" fill="#ffffff" d="M 168.5,206.5 C 167.732,205.737 167.232,204.737 167,203.5C 166.517,204.448 166.351,205.448 166.5,206.5C 165.097,203.091 164.43,199.425 164.5,195.5C 164.435,195.062 164.601,194.728 165,194.5C 167.099,198.231 168.266,202.231 168.5,206.5 Z"/></g>
<g><path style="opacity:0.945" fill="#ffffff" d="M 273.5,204.5 C 270.36,205.641 267.027,205.808 263.5,205C 265.167,204.667 266.833,204.333 268.5,204C 262.929,201.963 257.429,199.796 252,197.5C 251.517,198.448 251.351,199.448 251.5,200.5C 255.325,201.074 258.991,202.241 262.5,204C 261.906,204.464 261.239,204.631 260.5,204.5C 255.733,203.475 251.066,202.142 246.5,200.5C 245.048,199.698 243.382,199.198 241.5,199C 244.5,198.667 247.5,198.333 250.5,198C 247.34,196.756 244.007,195.922 240.5,195.5C 238.374,196.398 236.374,197.565 234.5,199C 235,199.5 235.5,200 236,200.5C 237.292,199.209 238.458,199.209 239.5,200.5C 233.026,204.239 226.693,208.239 220.5,212.5C 220.167,212.167 219.833,211.833 219.5,211.5C 225.265,206.237 230.932,200.737 236.5,195C 241.5,194.333 246.5,194.333 251.5,195C 259.039,197.943 266.373,201.109 273.5,204.5 Z"/></g>
<g><path style="opacity:1" fill="#ffffff" d="M 246.5,200.5 C 244.167,200.5 241.833,200.5 239.5,200.5C 238.458,199.209 237.292,199.209 236,200.5C 235.5,200 235,199.5 234.5,199C 236.374,197.565 238.374,196.398 240.5,195.5C 244.007,195.922 247.34,196.756 250.5,198C 247.5,198.333 244.5,198.667 241.5,199C 243.382,199.198 245.048,199.698 246.5,200.5 Z"/></g>
<g><path style="opacity:0.996" fill="#ffffff" d="M 240.5,202.5 C 242.857,202.337 245.19,202.503 247.5,203C 248.357,203.689 249.023,204.522 249.5,205.5C 247.988,209.201 245.988,212.534 243.5,215.5C 240.687,212.554 238.354,209.221 236.5,205.5C 237.624,204.141 238.958,203.141 240.5,202.5 Z"/></g>
<g><path style="opacity:1" fill="#ffffff" d="M 240.5,204.5 C 248.569,204.029 249.402,206.029 243,210.5C 240.149,209.154 239.316,207.154 240.5,204.5 Z"/></g>
<g><path style="opacity:0.996" fill="#ffffff" d="M 177.5,203.5 C 179.527,203.338 181.527,203.505 183.5,204C 184.022,204.561 184.355,205.228 184.5,206C 183.333,208.833 182.167,211.667 181,214.5C 177.454,211.449 176.288,207.782 177.5,203.5 Z"/></g>
<g><path style="opacity:0.945" fill="#ffffff" d="M 168.5,206.5 C 168.795,208.735 168.461,210.735 167.5,212.5C 166.659,210.621 166.325,208.621 166.5,206.5C 166.351,205.448 166.517,204.448 167,203.5C 167.232,204.737 167.732,205.737 168.5,206.5 Z"/></g>
<g><path style="opacity:1" fill="#ffffff" d="M 190.5,228.5 C 190.158,229.338 189.492,229.672 188.5,229.5C 188.5,228.833 188.167,228.5 187.5,228.5C 187.238,227.022 187.571,225.689 188.5,224.5C 190.833,223.5 192.5,221.833 193.5,219.5C 192.767,218.913 191.767,218.913 190.5,219.5C 191.607,217.031 193.607,216.031 196.5,216.5C 195.855,219.547 196.855,221.713 199.5,223C 196.539,224.265 193.539,225.431 190.5,226.5C 189.227,227.257 189.227,227.923 190.5,228.5 Z"/></g>
<g><path style="opacity:0.655" fill="#ffffff" d="M 174.5,209.5 C 175.376,212.799 175.543,216.132 175,219.5C 172.281,222.922 169.114,225.422 165.5,227C 166.267,225.53 166.933,224.03 167.5,222.5C 168.319,219.695 168.819,216.695 169,213.5C 169.186,215.9 169.686,218.234 170.5,220.5C 173.475,217.435 174.141,213.935 172.5,210C 173.094,209.536 173.761,209.369 174.5,209.5 Z"/></g>
<g><path style="opacity:1" fill="#ffffff" d="M 187.5,228.5 C 186.448,228.351 185.448,228.517 184.5,229C 183.947,230.878 182.947,232.378 181.5,233.5C 180.624,233.631 179.957,233.298 179.5,232.5C 182.204,227.571 185.204,223.571 188.5,220.5C 189.167,220.167 189.833,219.833 190.5,219.5C 191.767,218.913 192.767,218.913 193.5,219.5C 192.5,221.833 190.833,223.5 188.5,224.5C 187.571,225.689 187.238,227.022 187.5,228.5 Z"/></g>
<g><path style="opacity:1" fill="#ffffff" d="M 354.5,238.5 C 352.952,238.821 352.285,239.821 352.5,241.5C 354.099,241.232 355.432,241.566 356.5,242.5C 355.325,242.281 354.325,242.614 353.5,243.5C 355.147,245.488 354.814,246.821 352.5,247.5C 352.784,245.585 352.451,243.919 351.5,242.5C 351.5,240.833 351.5,239.167 351.5,237.5C 352.791,237.263 353.791,237.596 354.5,238.5 Z"/></g>
<g><path style="opacity:0.996" fill="#ffffff" d="M 187.5,228.5 C 188.167,228.5 188.5,228.833 188.5,229.5C 181.979,235.367 175.479,241.367 169,247.5C 168.088,249.659 167.255,251.825 166.5,254C 163.333,253.922 160.166,253.422 157,252.5C 155.744,252.648 154.577,252.982 153.5,253.5C 152.957,253.56 152.624,253.893 152.5,254.5C 153.325,255.386 154.325,255.719 155.5,255.5C 160.037,255.264 163.037,257.264 164.5,261.5C 164.44,262.043 164.107,262.376 163.5,262.5C 162.618,261.24 161.618,260.074 160.5,259C 156.937,258.16 153.603,256.826 150.5,255C 151.696,252.148 153.863,250.648 157,250.5C 159.822,251.275 162.656,251.942 165.5,252.5C 165.556,249.606 166.39,246.939 168,244.5C 172.921,241.289 177.421,237.622 181.5,233.5C 182.947,232.378 183.947,230.878 184.5,229C 185.448,228.517 186.448,228.351 187.5,228.5 Z"/></g>
<g><path style="opacity:1" fill="#ffffff" d="M 188.5,220.5 C 185.204,223.571 182.204,227.571 179.5,232.5C 179.957,233.298 180.624,233.631 181.5,233.5C 177.421,237.622 172.921,241.289 168,244.5C 166.39,246.939 165.556,249.606 165.5,252.5C 162.656,251.942 159.822,251.275 157,250.5C 153.863,250.648 151.696,252.148 150.5,255C 153.603,256.826 156.937,258.16 160.5,259C 161.618,260.074 162.618,261.24 163.5,262.5C 164.107,262.376 164.44,262.043 164.5,261.5C 165.338,261.842 165.672,262.508 165.5,263.5C 164.957,263.56 164.624,263.893 164.5,264.5C 167.427,270.541 168.927,276.874 169,283.5C 164.737,288.752 159.237,291.919 152.5,293C 153.416,293.374 154.25,293.874 155,294.5C 159.288,294.381 163.788,294.381 168.5,294.5C 168.286,296.144 168.62,297.644 169.5,299C 174.672,302.085 179.672,305.419 184.5,309C 187.603,310.367 190.77,311.534 194,312.5C 213.826,308.956 232.993,303.456 251.5,296C 257.18,295.555 262.846,295.055 268.5,294.5C 269.548,298.461 270.048,302.461 270,306.5C 264.892,313.672 257.892,316.672 249,315.5C 239.843,314.584 230.676,314.417 221.5,315C 212.175,319.374 202.341,321.874 192,322.5C 181.804,326.61 171.304,326.943 160.5,323.5C 157.374,316.368 153.04,310.035 147.5,304.5C 142.512,303.004 137.512,301.67 132.5,300.5C 132.508,297.455 132.841,294.455 133.5,291.5C 136.463,290.235 139.463,288.902 142.5,287.5C 141,286.5 139.5,285.5 138,284.5C 134.498,286.043 131.831,285.043 130,281.5C 129.403,279.076 130.237,277.243 132.5,276C 132.333,275.5 132.167,275 132,274.5C 130.295,277.545 129.129,277.711 128.5,275C 128.777,270.755 130.11,266.921 132.5,263.5C 137.547,259.454 141.881,254.788 145.5,249.5C 146.611,248.389 147.945,247.722 149.5,247.5C 151.473,248.331 153.473,248.498 155.5,248C 157.377,246.815 159.377,245.815 161.5,245C 167.593,238.068 173.927,231.235 180.5,224.5C 182.91,222.628 185.577,221.295 188.5,220.5 Z"/></g>
<g><path style="opacity:0.996" fill="#ffffff" d="M 391.5,238.5 C 391.666,243.179 391.499,247.845 391,252.5C 390.221,255.097 389.721,255.097 389.5,252.5C 389.5,251.5 389.5,250.5 389.5,249.5C 390.167,245.833 390.833,242.167 391.5,238.5 Z"/></g>
<g><path style="opacity:0.129" fill="#ffffff" d="M 153.5,253.5 C 154.167,254.167 154.833,254.833 155.5,255.5C 154.325,255.719 153.325,255.386 152.5,254.5C 152.624,253.893 152.957,253.56 153.5,253.5 Z"/></g>
<g><path style="opacity:0.996" fill="#ffffff" d="M 388.5,255.5 C 389.886,258.393 389.552,261.226 387.5,264C 374.879,266.327 362.212,267.994 349.5,269C 351.058,268.79 352.391,268.29 353.5,267.5C 364.783,265.819 375.949,263.819 387,261.5C 387.315,259.414 387.815,257.414 388.5,255.5 Z"/></g>
<g><path style="opacity:0.82" fill="#ffffff" d="M 268.5,395.5 C 268.894,391.594 270.06,387.928 272,384.5C 283.667,365.167 295.333,345.833 307,326.5C 321.959,312.843 336.959,299.176 352,285.5C 351.345,281.2 350.512,276.866 349.5,272.5C 349.369,271.761 349.536,271.094 350,270.5C 352.186,275.705 353.519,281.038 354,286.5C 339.427,299.895 324.593,313.228 309.5,326.5C 306.226,333.371 302.226,339.705 297.5,345.5C 298.811,346.258 299.311,347.258 299,348.5C 297.413,347.273 296.079,347.606 295,349.5C 288.375,361.35 281.375,373.016 274,384.5C 272.028,389.056 270.361,393.722 269,398.5C 268.517,397.552 268.351,396.552 268.5,395.5 Z"/></g>
<g><path style="opacity:0.945" fill="#ffffff" d="M 441.5,303.5 C 439.5,304.167 437.5,304.833 435.5,305.5C 428.933,307.262 422.266,308.595 415.5,309.5C 414.209,309.737 413.209,309.404 412.5,308.5C 422.056,306.189 431.723,304.522 441.5,303.5 Z"/></g>
<g><path style="opacity:0.655" fill="#ffffff" d="M 190.5,228.5 C 189.227,227.923 189.227,227.257 190.5,226.5C 193.539,225.431 196.539,224.265 199.5,223C 196.855,221.713 195.855,219.547 196.5,216.5C 193.607,216.031 191.607,217.031 190.5,219.5C 189.833,219.833 189.167,220.167 188.5,220.5C 185.577,221.295 182.91,222.628 180.5,224.5C 173.927,231.235 167.593,238.068 161.5,245C 159.377,245.815 157.377,246.815 155.5,248C 153.473,248.498 151.473,248.331 149.5,247.5C 147.945,247.722 146.611,248.389 145.5,249.5C 141.881,254.788 137.547,259.454 132.5,263.5C 130.11,266.921 128.777,270.755 128.5,275C 129.129,277.711 130.295,277.545 132,274.5C 132.167,275 132.333,275.5 132.5,276C 130.237,277.243 129.403,279.076 130,281.5C 131.831,285.043 134.498,286.043 138,284.5C 139.5,285.5 141,286.5 142.5,287.5C 139.463,288.902 136.463,290.235 133.5,291.5C 132.841,294.455 132.508,297.455 132.5,300.5C 137.512,301.67 142.512,303.004 147.5,304.5C 153.04,310.035 157.374,316.368 160.5,323.5C 171.304,326.943 181.804,326.61 192,322.5C 202.341,321.874 212.175,319.374 221.5,315C 230.676,314.417 239.843,314.584 249,315.5C 257.892,316.672 264.892,313.672 270,306.5C 270.048,302.461 269.548,298.461 268.5,294.5C 262.846,295.055 257.18,295.555 251.5,296C 232.993,303.456 213.826,308.956 194,312.5C 190.77,311.534 187.603,310.367 184.5,309C 179.672,305.419 174.672,302.085 169.5,299C 168.62,297.644 168.286,296.144 168.5,294.5C 163.788,294.381 159.288,294.381 155,294.5C 154.25,293.874 153.416,293.374 152.5,293C 159.237,291.919 164.737,288.752 169,283.5C 168.927,276.874 167.427,270.541 164.5,264.5C 164.624,263.893 164.957,263.56 165.5,263.5C 168.365,268.926 170.365,274.759 171.5,281C 170.38,285.13 168.046,288.464 164.5,291C 165.833,291.333 167.167,291.667 168.5,292C 169.786,295.153 171.786,297.819 174.5,300C 179.833,303.333 185.167,306.667 190.5,310C 211.473,307.347 231.806,302.013 251.5,294C 257.465,293.037 263.465,292.537 269.5,292.5C 271.295,297.011 272.129,301.677 272,306.5C 266.333,314.582 258.499,318.248 248.5,317.5C 234.651,314.936 221.318,316.436 208.5,322C 200.741,321.809 193.408,323.475 186.5,327C 177.361,327.993 168.361,327.326 159.5,325C 156.155,317.972 151.822,311.639 146.5,306C 141.401,305.25 136.567,303.75 132,301.5C 129.948,296.211 131.114,291.711 135.5,288C 127.392,284.619 124.558,278.785 127,270.5C 128.228,266.941 129.894,263.608 132,260.5C 139.079,252.749 146.746,245.749 155,239.5C 156.059,239.63 156.892,240.13 157.5,241C 153.045,245.404 153.711,246.404 159.5,244C 168.671,232.157 179.671,222.491 192.5,215C 195.55,214.321 198.55,213.488 201.5,212.5C 202.308,212.808 202.975,213.308 203.5,214C 201.5,216 199.5,218 197.5,220C 199.303,220.637 200.636,221.803 201.5,223.5C 198.091,225.747 194.424,227.414 190.5,228.5 Z"/></g>
<g><path style="opacity:0.129" fill="#ffffff" d="M 258.5,321.5 C 259.833,322.167 259.833,322.167 258.5,321.5 Z"/></g>
<g><path style="opacity:0.475" fill="#ffffff" d="M 247.5,327.5 C 246.081,326.549 244.415,326.216 242.5,326.5C 247.21,325.809 251.877,324.476 256.5,322.5C 257.696,322.846 257.696,323.346 256.5,324C 253.516,325.271 250.516,326.438 247.5,327.5 Z"/></g>
<g><path style="opacity:1" fill="#ffffff" d="M 484.5,325.5 C 484.536,329.2 486.203,331.867 489.5,333.5C 483.966,333.826 482.3,331.159 484.5,325.5 Z"/></g>
<g><path style="opacity:0.945" fill="#ffffff" d="M 235.5,327.5 C 236.833,327.5 238.167,327.5 239.5,327.5C 236.263,329.376 232.93,329.71 229.5,328.5C 231.379,327.659 233.379,327.325 235.5,327.5 Z"/></g>
<g><path style="opacity:1" fill="#ffffff" d="M 239.5,327.5 C 240.873,327.343 242.207,327.51 243.5,328C 238.479,330.179 233.479,332.346 228.5,334.5C 229.562,333.425 229.562,332.425 228.5,331.5C 225.916,332.393 223.249,332.726 220.5,332.5C 220.5,332.167 220.5,331.833 220.5,331.5C 223.32,331.752 225.986,331.252 228.5,330C 228.272,329.601 227.938,329.435 227.5,329.5C 227.842,328.662 228.508,328.328 229.5,328.5C 232.93,329.71 236.263,329.376 239.5,327.5 Z"/></g>
<g><path style="opacity:0.996" fill="#ffffff" d="M 227.5,329.5 C 227.938,329.435 228.272,329.601 228.5,330C 225.986,331.252 223.32,331.752 220.5,331.5C 220.5,331.167 220.5,330.833 220.5,330.5C 222.717,329.631 225.05,329.298 227.5,329.5 Z"/></g>
<g><path style="opacity:0.996" fill="#ffffff" d="M 412.5,308.5 C 413.209,309.404 414.209,309.737 415.5,309.5C 403.5,313.156 391.833,317.989 380.5,324C 364.841,341.16 351.007,359.66 339,379.5C 336.236,384.884 334.236,390.551 333,396.5C 330.225,412.151 327.558,427.817 325,443.5C 318.333,451.5 311.667,459.5 305,467.5C 302.791,483.432 299.958,499.099 296.5,514.5C 295.791,513.596 294.791,513.263 293.5,513.5C 293.5,512.167 293.5,510.833 293.5,509.5C 294.222,509.918 294.722,510.584 295,511.5C 295.333,508.5 295.667,505.5 296,502.5C 296.333,502.833 296.667,503.167 297,503.5C 297.27,499.627 297.77,495.794 298.5,492C 298.355,491.228 298.022,490.561 297.5,490C 301.11,481.837 302.61,473.337 302,464.5C 302.414,464.957 302.914,465.291 303.5,465.5C 303.94,464.302 304.273,463.135 304.5,462C 305.938,461.781 307.271,461.281 308.5,460.5C 313.85,454.478 318.85,448.145 323.5,441.5C 325.21,423.778 328.377,406.111 333,388.5C 336.967,377.839 342.301,368.505 349,360.5C 349.49,359.207 349.657,357.873 349.5,356.5C 351.103,356.688 352.437,356.188 353.5,355C 352.483,353.951 352.316,352.784 353,351.5C 353.333,352.167 353.667,352.833 354,353.5C 362.127,342.775 370.627,332.275 379.5,322C 383.772,319.055 388.272,316.555 393,314.5C 393.414,314.957 393.914,315.291 394.5,315.5C 400.102,312.028 406.102,309.695 412.5,308.5 Z"/></g>
<g><path style="opacity:0.996" fill="#ffffff" d="M 235.5,327.5 C 237.607,326.532 239.941,326.198 242.5,326.5C 244.415,326.216 246.081,326.549 247.5,327.5C 238.192,332.787 228.525,337.62 218.5,342C 211.742,345.762 205.909,350.595 201,356.5C 199.5,362.544 198,368.544 196.5,374.5C 189.231,361.628 182.231,348.628 175.5,335.5C 175.833,335.167 176.167,334.833 176.5,334.5C 180.778,335.41 185.111,336.077 189.5,336.5C 199.812,334.338 210.146,332.338 220.5,330.5C 220.5,330.833 220.5,331.167 220.5,331.5C 220.5,331.833 220.5,332.167 220.5,332.5C 210.578,334.779 200.578,336.779 190.5,338.5C 186.548,338.611 182.548,338.444 178.5,338C 179.622,340.124 181.122,341.957 183,343.5C 185.802,351.102 189.135,358.435 193,365.5C 194,366.167 195,366.833 196,367.5C 196.333,363.5 196.667,359.5 197,355.5C 197.414,355.957 197.914,356.291 198.5,356.5C 204.039,348.954 211.039,343.288 219.5,339.5C 220.853,338.315 222.02,336.981 223,335.5C 223.333,335.833 223.667,336.167 224,336.5C 225.33,335.418 226.83,334.751 228.5,334.5C 233.479,332.346 238.479,330.179 243.5,328C 242.207,327.51 240.873,327.343 239.5,327.5C 238.167,327.5 236.833,327.5 235.5,327.5 Z"/></g>
<g><path style="opacity:1" fill="#ffffff" d="M 228.5,334.5 C 226.83,334.751 225.33,335.418 224,336.5C 223.667,336.167 223.333,335.833 223,335.5C 222.02,336.981 220.853,338.315 219.5,339.5C 211.039,343.288 204.039,348.954 198.5,356.5C 197.914,356.291 197.414,355.957 197,355.5C 196.667,359.5 196.333,363.5 196,367.5C 195,366.833 194,366.167 193,365.5C 189.135,358.435 185.802,351.102 183,343.5C 181.122,341.957 179.622,340.124 178.5,338C 182.548,338.444 186.548,338.611 190.5,338.5C 200.578,336.779 210.578,334.779 220.5,332.5C 223.249,332.726 225.916,332.393 228.5,331.5C 229.562,332.425 229.562,333.425 228.5,334.5 Z"/></g>
<g><path style="opacity:0.82" fill="#ffffff" d="M 441.5,303.5 C 446.461,305.42 448.294,309.087 447,314.5C 433.886,333.756 420.552,352.756 407,371.5C 406.28,373.112 406.446,374.612 407.5,376C 403.704,376.229 401.371,378.229 400.5,382C 403.151,381.122 405.984,380.289 409,379.5C 409.765,379.57 410.265,379.903 410.5,380.5C 406.436,382.801 402.103,383.968 397.5,384C 412.962,360.241 428.795,336.741 445,313.5C 445.753,306.59 442.587,303.923 435.5,305.5C 437.5,304.833 439.5,304.167 441.5,303.5 Z"/></g>
<g><path style="opacity:0.996" fill="#ffffff" d="M 213.5,422.5 C 213.631,423.239 213.464,423.906 213,424.5C 209.333,417.833 205.667,411.167 202,404.5C 201.502,407.817 201.335,411.15 201.5,414.5C 200.677,411.023 200.177,407.356 200,403.5C 199.501,407.152 199.335,410.818 199.5,414.5C 198.103,405.354 197.603,396.021 198,386.5C 201.718,392.651 204.051,399.318 205,406.5C 206.608,409.772 208.608,412.772 211,415.5C 212.411,417.65 213.245,419.984 213.5,422.5 Z"/></g>
<g><path style="opacity:1" fill="#ffffff" d="M 213.5,422.5 C 214.924,424.515 215.59,426.848 215.5,429.5C 214.732,428.737 214.232,427.737 214,426.5C 214.087,431.473 214.421,436.473 215,441.5C 221.526,446.424 228.192,451.091 235,455.5C 235.507,456.996 235.007,458.163 233.5,459C 235.669,462.201 237.836,465.367 240,468.5C 241.113,467.289 242.28,467.289 243.5,468.5C 247.981,472.489 250.481,477.489 251,483.5C 253.349,495.266 255.516,507.1 257.5,519C 257.167,519.833 256.833,520.667 256.5,521.5C 255.667,520.5 254.833,519.5 254,518.5C 253.093,513.056 251.76,507.723 250,502.5C 248.732,502.384 247.398,502.051 246,501.5C 243.343,509.313 241.176,517.313 239.5,525.5C 238.313,524.347 237.313,524.347 236.5,525.5C 235.508,525.672 234.842,525.338 234.5,524.5C 235.124,524.083 235.457,523.416 235.5,522.5C 232.45,505.914 225.95,490.914 216,477.5C 215.346,476.304 214.846,476.304 214.5,477.5C 214.863,478.183 215.196,478.85 215.5,479.5C 214.833,483.833 214.167,488.167 213.5,492.5C 213.666,487.489 213.499,482.489 213,477.5C 212.436,484.536 211.603,491.536 210.5,498.5C 208.566,498.099 207.066,497.099 206,495.5C 204.779,484.2 204.279,472.866 204.5,461.5C 204.877,452.273 204.211,443.273 202.5,434.5C 201.577,427.891 201.244,421.224 201.5,414.5C 201.335,411.15 201.502,407.817 202,404.5C 205.667,411.167 209.333,417.833 213,424.5C 213.464,423.906 213.631,423.239 213.5,422.5 Z"/></g>
<g><path style="opacity:0.996" fill="#ffffff" d="M 279.5,436.5 C 279.5,440.5 279.5,444.5 279.5,448.5C 278.672,442.681 278.172,436.681 278,430.5C 273.051,427.944 268.218,425.278 263.5,422.5C 271.749,416.425 279.582,409.759 287,402.5C 287.808,400.421 287.641,398.421 286.5,396.5C 280.027,399.74 273.36,402.406 266.5,404.5C 266.216,402.585 266.549,400.919 267.5,399.5C 268.156,400.278 268.989,400.944 270,401.5C 275.181,399.622 280.015,397.288 284.5,394.5C 286.374,394.39 287.874,395.056 289,396.5C 289.584,399.257 289.25,401.923 288,404.5C 280.93,410.747 273.763,416.747 266.5,422.5C 270.808,424.334 274.975,426.334 279,428.5C 280.415,431.002 280.581,433.668 279.5,436.5 Z"/></g>
<g><path style="opacity:1" fill="#ffffff" d="M 202.5,434.5 C 204.211,443.273 204.877,452.273 204.5,461.5C 202.97,452.712 202.303,443.712 202.5,434.5 Z"/></g>
<g><path style="opacity:0.82" fill="#ffffff" d="M 279.5,436.5 C 280.71,444.547 281.71,452.714 282.5,461C 282.167,461.333 281.833,461.667 281.5,462C 284.353,463.53 285.02,465.697 283.5,468.5C 284.975,472.398 286.142,476.398 287,480.5C 288.264,480.64 289.431,480.64 290.5,480.5C 289.937,481.939 289.603,483.439 289.5,485C 290.457,488.872 291.623,492.706 293,496.5C 293.499,500.821 293.666,505.154 293.5,509.5C 293.5,510.833 293.5,512.167 293.5,513.5C 294.791,513.263 295.791,513.596 296.5,514.5C 295.116,515.801 293.616,515.801 292,514.5C 291.667,508.5 291.333,502.5 291,496.5C 286.732,485.363 283.066,474.03 280,462.5C 279.501,457.845 279.334,453.179 279.5,448.5C 279.5,444.5 279.5,440.5 279.5,436.5 Z"/></g>
<g><path style="opacity:0.82" fill="#ffffff" d="M 201.5,414.5 C 201.244,421.224 201.577,427.891 202.5,434.5C 202.303,443.712 202.97,452.712 204.5,461.5C 204.279,472.866 204.779,484.2 206,495.5C 207.066,497.099 208.566,498.099 210.5,498.5C 211.603,491.536 212.436,484.536 213,477.5C 213.499,482.489 213.666,487.489 213.5,492.5C 213.5,495.167 213.5,497.833 213.5,500.5C 210.117,500.743 206.951,500.076 204,498.5C 202.168,470.515 200.668,442.515 199.5,414.5C 199.335,410.818 199.501,407.152 200,403.5C 200.177,407.356 200.677,411.023 201.5,414.5 Z"/></g>
<g><path style="opacity:0.996" fill="#ffffff" d="M 234.5,524.5 C 231.534,515.666 228.701,506.666 226,497.5C 222.224,491.609 218.724,485.609 215.5,479.5C 215.196,478.85 214.863,478.183 214.5,477.5C 214.846,476.304 215.346,476.304 216,477.5C 225.95,490.914 232.45,505.914 235.5,522.5C 235.457,523.416 235.124,524.083 234.5,524.5 Z"/></g>
<g><path style="opacity:0.996" fill="#ffffff" d="M 215.5,429.5 C 216.139,433.527 216.972,437.527 218,441.5C 224.333,445.833 230.667,450.167 237,454.5C 236.755,460.502 239.255,464.669 244.5,467C 250.275,472.549 253.441,479.383 254,487.5C 256.514,500.098 258.181,512.765 259,525.5C 258.692,526.308 258.192,526.975 257.5,527.5C 256.108,526.395 254.941,525.061 254,523.5C 252.247,517.378 250.247,511.378 248,505.5C 243.67,512.652 241.337,520.319 241,528.5C 239.348,527.601 237.848,526.601 236.5,525.5C 237.313,524.347 238.313,524.347 239.5,525.5C 241.176,517.313 243.343,509.313 246,501.5C 247.398,502.051 248.732,502.384 250,502.5C 251.76,507.723 253.093,513.056 254,518.5C 254.833,519.5 255.667,520.5 256.5,521.5C 256.833,520.667 257.167,519.833 257.5,519C 255.516,507.1 253.349,495.266 251,483.5C 250.481,477.489 247.981,472.489 243.5,468.5C 242.28,467.289 241.113,467.289 240,468.5C 237.836,465.367 235.669,462.201 233.5,459C 235.007,458.163 235.507,456.996 235,455.5C 228.192,451.091 221.526,446.424 215,441.5C 214.421,436.473 214.087,431.473 214,426.5C 214.232,427.737 214.732,428.737 215.5,429.5 Z"/></g>
<g><path style="opacity:0.996" fill="#ffffff" d="M 205.5,510.5 C 208.545,510.342 211.379,511.009 214,512.5C 221.008,524.184 226.674,536.518 231,549.5C 231.667,554.167 231.667,558.833 231,563.5C 227.245,558.997 224.245,553.997 222,548.5C 216.523,542.869 211.523,536.869 207,530.5C 205.785,523.669 205.285,517.003 205.5,510.5 Z"/></g>
<g><path style="opacity:1" fill="#ffffff" d="M 210.5,513.5 C 211.496,513.414 212.329,513.748 213,514.5C 218.803,526.057 224.136,537.39 229,548.5C 229.667,551.5 229.667,554.5 229,557.5C 225.5,550.493 221,544.16 215.5,538.5C 218.259,534.944 217.926,534.277 214.5,536.5C 210.033,533.78 208.033,529.78 208.5,524.5C 208.945,521.72 208.945,519.053 208.5,516.5C 208.942,515.261 209.609,514.261 210.5,513.5 Z"/></g>
<g><path style="opacity:1" fill="#ffffff" d="M 210.5,513.5 C 209.609,514.261 208.942,515.261 208.5,516.5C 208.945,519.053 208.945,521.72 208.5,524.5C 207.517,520.702 207.183,516.702 207.5,512.5C 208.791,512.263 209.791,512.596 210.5,513.5 Z"/></g>
</svg>
